Coordinates
version=1
nRows=17
nColumns=40
inDegrees=yes

Units are S.I. units (second, meters, Newtons, ...)
Angles are in degrees.

endheader
time	pelvis_tilt	pelvis_list	pelvis_rotation	pelvis_tx	pelvis_ty	pelvis_tz	hip_flexion_r	hip_adduction_r	hip_rotation_r	knee_angle_r	knee_angle_r_beta	ankle_angle_r	subtalar_angle_r	mtp_angle_r	hip_flexion_l	hip_adduction_l	hip_rotation_l	knee_angle_l	knee_angle_l_beta	ankle_angle_l	subtalar_angle_l	mtp_angle_l	lumbar_extension	lumbar_bending	lumbar_rotation	arm_flex_r	arm_add_r	arm_rot_r	elbow_flex_r	pro_sup_r	wrist_flex_r	wrist_dev_r	arm_flex_l	arm_add_l	arm_rot_l	elbow_flex_l	pro_sup_l	wrist_flex_l	wrist_dev_l
     56.36250000	     -4.66935662	     -4.24925600	     -2.97271547	      1.08940583	      0.93560824	      0.45231995	     35.99180626	     -7.14472305	     -6.11163924	     67.25190512	     67.25190512	     -0.39286185	    -12.60559558	     -0.89909184	     10.46842905	     -3.75005372	    -11.96404972	     16.64814559	     16.64814559	     13.66193070	     -4.65971980	     -3.69056050	     -9.97033122	      6.74811611	      1.56615694	      4.21694602	    -11.87769355	     -9.04163570	     45.42086665	     46.49718753	      0.00000000	      0.00000000	     16.72606028	    -15.31387272	      2.44728760	     48.76684329	     46.39828121	      0.00000000	      0.00000000
     56.37385714	     -4.60700122	     -4.14683378	     -3.22591556	      1.08822490	      0.93566072	      0.45204870	     36.66461292	     -7.13048151	     -6.22408968	     64.82619093	     64.82619093	     -0.34380558	    -11.79927410	     -0.80061391	      9.20939993	     -3.44611978	    -12.16858834	     15.47544484	     15.47544484	     13.46623599	     -4.62217508	     -4.69066745	    -10.18785983	      6.70171112	      1.36925646	      3.54366985	    -11.73608888	     -9.24442845	     40.40853145	     46.62617268	      0.00000000	      0.00000000	     17.64342497	    -15.97201270	      1.30572278	     51.67121460	     46.55308132	      0.00000000	      0.00000000
     56.38521429	     -4.58050288	     -4.01738992	     -3.47072567	      1.08714089	      0.93546922	      0.45185806	     37.18136822	     -7.09248030	     -6.32711843	     61.96864098	     61.96864098	     -0.31484221	    -10.95831270	     -0.71698978	      8.01507795	     -3.13554144	    -12.46102712	     14.37235582	     14.37235582	     13.42870865	     -4.33662902	     -5.45942586	    -10.33222317	      6.62128576	      1.44702455	      2.43585397	    -11.74622700	     -9.52581484	     36.18443481	     46.74811526	      0.00000000	      0.00000000	     18.83543429	    -16.46408978	      0.57718575	     54.16491400	     46.66599920	      0.00000000	      0.00000000
     56.39657143	     -4.53412150	     -3.92767600	     -3.68832889	      1.08620636	      0.93515915	      0.45168656	     37.43286517	     -7.00647634	     -6.52004623	     58.64550564	     58.64550564	     -0.26009334	    -10.00052571	     -0.48548012	      6.84299028	     -2.87306014	    -12.74312787	     13.39121860	     13.39121860	     13.68487952	     -3.91448759	     -5.64085936	    -10.52846966	      6.61793839	      1.88484377	      0.37103947	    -11.99593072	     -9.57727748	     34.17150181	     46.80594821	      0.00000000	      0.00000000	     20.42483835	    -16.65708146	      0.10167779	     56.02017069	     46.74427550	      0.00000000	      0.00000000
     56.40792857	     -4.51250587	     -3.66418924	     -3.91145418	      1.08535951	      0.93452624	      0.45158973	     37.56878796	     -7.02032612	     -6.61370276	     54.99064813	     54.99064813	     -0.24228811	     -9.10970299	     -0.43558531	      5.67445245	     -2.41244595	    -13.06034288	     12.33106676	     12.33106676	     13.72862671	     -3.47736942	     -6.22278320	    -10.67177059	      6.38758937	      2.11046907	     -1.13432080	    -12.01609140	     -9.87292175	     31.02796900	     46.92373400	      0.00000000	      0.00000000	     21.56304348	    -17.05300435	     -0.51503209	     58.82013088	     46.84475819	      0.00000000	      0.00000000
     56.41928571	     -4.57718527	     -3.54238603	     -4.04383669	      1.08463539	      0.93365598	      0.45151463	     37.46184563	     -6.89369945	     -6.94633601	     50.79708452	     50.79708452	     -0.48526062	     -8.31051943	     -1.08965672	      4.66162994	     -2.10617342	    -13.13652865	     11.36304247	     11.36304247	     13.50392463	     -3.43210938	     -7.44043637	    -10.66852180	      6.34266395	      1.18474344	     -1.27787788	    -11.78743493	    -11.11035882	     26.32610415	     47.16551629	      0.00000000	      0.00000000	     21.38944303	    -18.10067110	     -2.00051646	     62.92647411	     47.03344092	      0.00000000	      0.00000000
     56.43064286	     -4.74046924	     -3.40802932	     -4.12527805	      1.08395185	      0.93247081	      0.45152094	     37.26522544	     -6.72996338	     -7.36101520	     46.32448743	     46.32448743	     -0.35080060	     -7.34918232	     -0.59697291	      3.93881928	     -1.85724184	    -13.24416489	     10.79013423	     10.79013423	     13.85677307	     -3.08863634	     -7.58359318	    -10.51412770	      6.36038175	      1.20779103	     -3.33546717	    -11.91959068	    -11.22168444	     25.24125636	     47.19911718	      0.00000000	      0.00000000	     22.73254516	    -18.46343773	     -2.45717344	     64.31909743	     47.09884317	      0.00000000	      0.00000000
     56.44200000	     -4.67125502	     -3.17928254	     -4.24056760	      1.08364107	      0.93148979	      0.45165289	     36.59875288	     -6.61886032	     -7.84399030	     41.55337418	     41.55337418	     -0.24367014	     -6.15223356	     -0.17531022	      2.85144447	     -1.48191580	    -13.52852818	     10.05308730	     10.05308730	     14.17142110	     -2.48734499	     -7.78537174	    -10.67219218	      6.13348931	      1.65734429	     -5.48601050	    -12.09964766	    -11.43114727	     23.85546672	     47.25406339	      0.00000000	      0.00000000	     23.93897776	    -18.42851597	     -2.96051288	     66.79035404	     47.18450366	      0.00000000	      0.00000000
     56.45335714	     -4.69797629	     -2.83799540	     -4.33141742	      1.08347782	      0.93007184	      0.45191421	     35.88541617	     -6.55005655	     -8.40877797	     36.64327085	     36.64327085	     -0.16973519	     -4.91410095	     -0.00178289	      1.92807619	     -1.03025681	    -13.93073980	      9.42596892	      9.42596892	     14.51519205	     -1.64482003	     -8.10195886	    -10.68215269	      5.77041593	      1.56654560	     -7.22621719	    -12.05967182	    -12.04991663	     22.43501256	     47.35065393	      0.00000000	      0.00000000	     24.36499316	    -18.86411939	     -3.82431041	     70.57467047	     47.31763185	      0.00000000	      0.00000000
     56.46471429	     -4.72300567	     -2.60179685	     -4.34157397	      1.08350827	      0.92855711	      0.45234173	     34.93237984	     -6.31308330	     -9.17758776	     31.58263780	     31.58263780	     -0.02085672	     -3.60858204	      0.71642209	      1.17464540	     -0.75667073	    -14.26482099	      9.17199155	      9.17199155	     15.03795472	     -0.93183409	     -8.23842748	    -10.60304066	      5.52544880	      1.07309343	     -8.78144172	    -12.05141995	    -12.83499356	     21.35262759	     47.45380970	      0.00000000	      0.00000000	     24.58805224	    -19.46348490	     -4.88051044	     73.86304476	     47.46061558	      0.00000000	      0.00000000
     56.47607143	     -4.70810129	     -2.29231002	     -4.31353960	      1.08375158	      0.92692677	      0.45286683	     33.85427413	     -6.10180174	    -10.06823018	     26.67878305	     26.67878305	      0.35480152	     -2.02226585	      2.11754414	      0.38597483	     -0.40726206	    -14.46163716	      8.95130870	      8.95130870	     15.60404967	     -0.23707354	     -8.31153484	    -10.59585228	      5.20132466	      1.04656924	    -10.65215549	    -12.02135095	    -13.31479675	     20.62049528	     47.51201246	      0.00000000	      0.00000000	     25.28828038	    -19.71822070	     -5.52390889	     76.43457543	     47.56329493	      0.00000000	      0.00000000
     56.48742857	     -4.72088694	     -2.01951662	     -4.25410695	      1.08420437	      0.92517731	      0.45363666	     32.83538194	     -5.80167291	    -11.03543954	     22.25983772	     22.25983772	      1.40381586	     -0.29198830	      5.65352197	     -0.23137161	     -0.19704713	    -14.85792851	      9.07462453	      9.07462453	     16.46799179	      0.80357308	     -7.96636543	    -10.50275930	      4.89427561	      0.55963777	    -12.33132017	    -11.97026163	    -14.35865352	     20.45204527	     47.59638909	      0.00000000	      0.00000000	     25.34928640	    -20.27885057	     -6.50739401	     79.58364826	     47.71681765	      0.00000000	      0.00000000
     56.49878571	     -4.66606967	     -1.71770791	     -4.19455411	      1.08489492	      0.92339743	      0.45457567	     31.82489056	     -5.51688177	    -12.12098717	     18.42056758	     18.42056758	      2.46298431	      1.51207119	      9.12518482	     -0.96415456	      0.06061166	    -15.11554007	      9.13017624	      9.13017624	     17.20047079	      1.58704519	     -7.74668860	    -10.44945502	      4.52021446	      0.47954594	    -14.23018587	    -11.87083789	    -15.04609478	     20.42050719	     47.62987406	      0.00000000	      0.00000000	     25.90065198	    -20.57774377	     -6.89861885	     81.99879832	     47.82269989	      0.00000000	      0.00000000
     56.51014286	     -4.62135602	     -1.43503693	     -4.11730803	      1.08577332	      0.92158838	      0.45574103	     30.92083561	     -5.18870268	    -13.15822273	     15.22999300	     15.22999300	      3.27838030	      3.07044385	     11.88662145	     -1.67126508	      0.27371425	    -15.29074610	      9.23548122	      9.23548122	     17.88073800	      2.24248248	     -7.54299708	    -10.35383478	      4.15326055	      0.44457871	    -16.12059067	    -11.75470615	    -15.48630180	     20.54246905	     47.62669498	      0.00000000	      0.00000000	     26.40562222	    -20.78137737	     -7.24151998	     84.19961478	     47.91835931	      0.00000000	      0.00000000
     56.52150000	     -4.59304704	     -1.18666100	     -4.04851234	      1.08677956	      0.91977066	      0.45713355	     30.13507889	     -4.80909621	    -14.01892105	     12.70030572	     12.70030572	      3.51319748	      4.24239617	     12.85964428	     -2.39797149	      0.45567460	    -15.28355714	      9.27179372	      9.27179372	     18.35682549	      2.56967178	     -7.55697426	    -10.20604565	      3.80912698	      0.58472315	    -17.83737697	    -11.61049616	    -15.61675430	     20.27912779	     47.62471291	      0.00000000	      0.00000000	     27.02057097	    -20.79327320	     -7.41858616	     85.91254278	     47.97369170	      0.00000000	      0.00000000
     56.53285714	     -4.63936859	     -1.00118280	     -3.95901954	      1.08784106	      0.91802962	      0.45873014	     29.54155569	     -4.40687760	    -14.68727619	     10.89021685	     10.89021685	      3.56708535	      5.11277980	     13.42413920	     -2.99961089	      0.53079090	    -15.23246064	      9.40023159	      9.40023159	     18.79562102	      2.80932899	     -7.54470736	     -9.96540211	      3.52548481	      0.63001177	    -19.33021932	    -11.46618400	    -15.73310758	     20.12255806	     47.62118364	      0.00000000	      0.00000000	     27.44683247	    -20.82733410	     -7.56492669	     87.44674270	     48.02108232	      0.00000000	      0.00000000
     56.54421429	     -4.67646044	     -0.91278181	     -3.87513760	      1.08900278	      0.91649647	      0.46058027	     29.09843777	     -4.00190367	    -15.26538310	      9.89567843	      9.89567843	      3.51066735	      5.84292545	     13.50307377	     -3.59805918	      0.46121861	    -15.25820887	      9.60214727	      9.60214727	     19.28090156	      3.15576473	     -7.34630617	     -9.78011700	      3.31997774	      0.72047842	    -20.75172761	    -11.31503028	    -15.88976973	     20.26841044	     47.60599104	      0.00000000	      0.00000000	     27.61493241	    -20.84699108	     -7.72303023	     89.32502027	     48.07647070	      0.00000000	      0.00000000
